<svg xmlns="http://www.w3.org/2000/svg" width="30" height="18" viewBox="0 0 30 18">
  <path id="behance" d="M12.083,83.465A3.782,3.782,0,0,0,14.6,79.777c0-3.519-2.74-4.377-5.9-4.377H0V93.066H8.948c3.354,0,6.505-1.54,6.505-5.129a4.28,4.28,0,0,0-3.37-4.471Zm-8.026-5.05H7.865c1.464,0,2.781.394,2.781,2.019,0,1.5-1.026,2.1-2.474,2.1H4.057V78.416ZM8.4,90.065H4.057V85.2H8.479c1.786,0,2.917.713,2.917,2.522C11.4,89.507,10.047,90.065,8.4,90.065Zm18.672-12H19.583v-1.74h7.484ZM30,86.855c0-3.783-2.312-6.939-6.505-6.939a6.566,6.566,0,0,0-6.839,6.769c0,3.983,2.62,6.714,6.839,6.714,3.193,0,5.26-1.376,6.255-4.3H26.51a3.06,3.06,0,0,1-2.9,1.67,2.955,2.955,0,0,1-3.281-3.255h9.641C29.984,87.3,30,87.079,30,86.855ZM20.333,85.3a2.819,2.819,0,0,1,3.047-2.732A2.683,2.683,0,0,1,26.307,85.3Z" transform="translate(0 -75.4)" fill="#fff"/>
</svg>
