<svg xmlns="http://www.w3.org/2000/svg" width="20" height="18" viewBox="0 0 20 18">
  <path id="iconmonstr-github-1" d="M10,0C4.478,0,0,4.132,0,9.228a9.33,9.33,0,0,0,6.839,8.756c.5.085.661-.2.661-.444V15.822c-2.782.558-3.361-1.089-3.361-1.089a2.508,2.508,0,0,0-1.111-1.35c-.907-.573.069-.561.069-.561a2.089,2.089,0,0,1,1.533.951,2.233,2.233,0,0,0,2.91.767,1.906,1.906,0,0,1,.635-1.233c-2.221-.235-4.556-1.026-4.556-4.561a3.424,3.424,0,0,1,1.03-2.477,3.082,3.082,0,0,1,.1-2.442s.84-.248,2.751.946a10.245,10.245,0,0,1,5.007,0c1.909-1.193,2.747-.946,2.747-.946a3.079,3.079,0,0,1,.1,2.442A3.415,3.415,0,0,1,16.38,8.746c0,3.544-2.339,4.325-4.566,4.553a2.119,2.119,0,0,1,.686,1.709V17.54c0,.245.16.534.668.443A9.329,9.329,0,0,0,20,9.228C20,4.132,15.522,0,10,0Z" fill="#fff"/>
</svg>
